<svg width="24" height="24" viewBox="0 0 24 24" fill="none" xmlns="http://www.w3.org/2000/svg">
<path d="M20 4V2C20 1.44772 19.5523 1 19 1C18.4477 1 18 1.44772 18 2V4H16C15.4477 4 15 4.44772 15 5C15 5.55228 15.4477 6 16 6H18V7.99C18 8.54228 18.4477 8.99 19 8.99C19.5523 8.99 20 8.54228 20 7.99V6H22C22.5523 6 23 5.55228 23 5C23 4.44772 22.5523 4 22 4H20Z" fill="#5ED451"/>
<path d="M18 20H4V6H12C12.5523 6 13 5.55228 13 5C13 4.44772 12.5523 4 12 4H4C2.9 4 2 4.9 2 6V20C2 21.1 2.9 22 4 22H18C19.1 22 20 21.1 20 20V12C20 11.4477 19.5523 11 19 11C18.4477 11 18 11.4477 18 12V20ZM10.21 16.83L8.25 14.47L5.5 18H16.5L12.96 13.29L10.21 16.83Z" fill="#5ED451"/>
</svg>
