<svg width="18" height="20" viewBox="0 0 18 20" fill="none" xmlns="http://www.w3.org/2000/svg">
<path d="M17.0702 15.5861C16.7677 16.2848 16.4097 16.928 15.9949 17.5194C15.4295 18.3255 14.9665 18.8835 14.6098 19.1934C14.0567 19.702 13.4641 19.9625 12.8296 19.9773C12.374 19.9773 11.8247 19.8477 11.1852 19.5847C10.5436 19.323 9.95399 19.1934 9.41487 19.1934C8.84946 19.1934 8.24306 19.323 7.59444 19.5847C6.94483 19.8477 6.42152 19.9847 6.02141 19.9983C5.41291 20.0242 4.80639 19.7563 4.20098 19.1934C3.81457 18.8564 3.33125 18.2786 2.75226 17.4601C2.13105 16.5861 1.62033 15.5725 1.22022 14.417C0.791712 13.1689 0.576904 11.9603 0.576904 10.7902C0.576904 9.44985 0.866524 8.29383 1.44663 7.3251C1.90254 6.54697 2.50906 5.93316 3.26817 5.48256C4.02728 5.03195 4.8475 4.80233 5.7308 4.78764C6.21412 4.78764 6.84792 4.93714 7.63555 5.23096C8.42096 5.52577 8.92526 5.67527 9.14636 5.67527C9.31167 5.67527 9.87189 5.50046 10.8216 5.15195C11.7197 4.82875 12.4777 4.69493 13.0987 4.74764C14.7814 4.88344 16.0455 5.54675 16.8862 6.74178C15.3813 7.65361 14.6369 8.93073 14.6517 10.5691C14.6653 11.8452 15.1283 12.9072 16.0381 13.7503C16.4504 14.1417 16.9109 14.4441 17.4232 14.659C17.3121 14.9812 17.1949 15.2898 17.0702 15.5861ZM13.211 0.400114C13.211 1.40034 12.8456 2.33425 12.1172 3.19867C11.2383 4.2263 10.1751 4.82011 9.02217 4.72641C9.00748 4.60641 8.99896 4.48012 8.99896 4.34741C8.99896 3.38719 9.41697 2.35956 10.1593 1.51934C10.5299 1.09392 11.0012 0.740191 11.5728 0.458013C12.1432 0.180046 12.6827 0.0263242 13.1901 0C13.2049 0.133715 13.211 0.267439 13.211 0.400101V0.400114Z" fill="#303030"/>
</svg>
