<svg width="24" height="24" viewBox="0 0 24 24" fill="none" xmlns="http://www.w3.org/2000/svg">
<path d="M20.0702 17.5861C19.7677 18.2848 19.4097 18.928 18.9949 19.5194C18.4295 20.3255 17.9665 20.8835 17.6098 21.1934C17.0567 21.702 16.4641 21.9625 15.8296 21.9773C15.374 21.9773 14.8247 21.8477 14.1852 21.5847C13.5436 21.323 12.954 21.1934 12.4149 21.1934C11.8495 21.1934 11.2431 21.323 10.5944 21.5847C9.94483 21.8477 9.42152 21.9847 9.02141 21.9983C8.41291 22.0242 7.80639 21.7563 7.20098 21.1934C6.81457 20.8564 6.33125 20.2786 5.75226 19.4601C5.13105 18.5861 4.62033 17.5725 4.22022 16.417C3.79171 15.1689 3.5769 13.9603 3.5769 12.7902C3.5769 11.4498 3.86652 10.2938 4.44663 9.3251C4.90254 8.54697 5.50906 7.93316 6.26817 7.48256C7.02728 7.03195 7.8475 6.80233 8.7308 6.78764C9.21412 6.78764 9.84792 6.93714 10.6356 7.23096C11.421 7.52577 11.9253 7.67527 12.1464 7.67527C12.3117 7.67527 12.8719 7.50046 13.8216 7.15195C14.7197 6.82875 15.4777 6.69493 16.0987 6.74764C17.7814 6.88344 19.0455 7.54675 19.8862 8.74178C18.3813 9.65361 17.6369 10.9307 17.6517 12.5691C17.6653 13.8452 18.1283 14.9072 19.0381 15.7503C19.4504 16.1417 19.9109 16.4441 20.4232 16.659C20.3121 16.9812 20.1949 17.2898 20.0702 17.5861ZM16.211 2.40011C16.211 3.40034 15.8456 4.33425 15.1172 5.19867C14.2383 6.2263 13.1751 6.82011 12.0222 6.72641C12.0075 6.60641 11.999 6.48012 11.999 6.34741C11.999 5.38719 12.417 4.35956 13.1593 3.51934C13.5299 3.09392 14.0012 2.74019 14.5728 2.45801C15.1432 2.18005 15.6827 2.02632 16.1901 2C16.2049 2.13372 16.211 2.26744 16.211 2.4001V2.40011Z" fill="#303030"/>
</svg>
