<svg width="8" height="16" viewBox="0 0 8 16" fill="none" xmlns="http://www.w3.org/2000/svg">
<path d="M3.18734 15.5V13.7083C2.45123 13.5417 1.81595 13.2222 1.2815 12.75C0.746504 12.2778 0.354004 11.6111 0.104004 10.75L1.64567 10.125C1.854 10.7917 2.16317 11.2986 2.57317 11.6458C2.98262 11.9931 3.52067 12.1667 4.18734 12.1667C4.75678 12.1667 5.23956 12.0383 5.63567 11.7817C6.03123 11.5244 6.229 11.125 6.229 10.5833C6.229 10.0972 6.07623 9.71167 5.77067 9.42667C5.46512 9.14222 4.75678 8.81944 3.64567 8.45833C2.45123 8.08333 1.63178 7.63556 1.18734 7.115C0.742893 6.59389 0.520671 5.95833 0.520671 5.20833C0.520671 4.30556 0.812337 3.60417 1.39567 3.10417C1.979 2.60417 2.57623 2.31944 3.18734 2.25V0.5H4.854V2.25C5.54845 2.36111 6.1215 2.61444 6.57317 3.01C7.02428 3.40611 7.354 3.88889 7.56234 4.45833L6.02067 5.125C5.854 4.68056 5.61789 4.34722 5.31234 4.125C5.00678 3.90278 4.59012 3.79167 4.06234 3.79167C3.45123 3.79167 2.98595 3.92722 2.6665 4.19833C2.34706 4.46889 2.18734 4.80556 2.18734 5.20833C2.18734 5.66667 2.39567 6.02778 2.81234 6.29167C3.229 6.55556 3.95123 6.83333 4.979 7.125C5.93734 7.40278 6.66317 7.84361 7.1565 8.4475C7.64928 9.05194 7.89567 9.75 7.89567 10.5417C7.89567 11.5278 7.604 12.2778 7.02067 12.7917C6.43734 13.3056 5.71512 13.625 4.854 13.75V15.5H3.18734Z" fill="#202020"/>
</svg>
