<svg width="19" height="15" viewBox="0 0 19 15" fill="none" xmlns="http://www.w3.org/2000/svg">
<path d="M17.125 9L15 6.875L15.725 6.15C15.9083 5.96667 16.1417 5.875 16.425 5.875C16.7083 5.875 16.9417 5.96667 17.125 6.15L17.85 6.875C18.0333 7.05833 18.125 7.29167 18.125 7.575C18.125 7.85833 18.0333 8.09167 17.85 8.275L17.125 9ZM9 15V12.875L14.3 7.575L16.425 9.7L11.125 15H9ZM1 10C0.447715 10 0 9.55229 0 9C0 8.44771 0.447715 8 1 8H6C6.55228 8 7 8.44771 7 9C7 9.55229 6.55228 10 6 10H1ZM1 6C0.447715 6 0 5.55228 0 5C0 4.44772 0.447715 4 1 4H10C10.5523 4 11 4.44772 11 5C11 5.55228 10.5523 6 10 6H1ZM1 2C0.447715 2 0 1.55228 0 1C0 0.447715 0.447715 0 1 0H10C10.5523 0 11 0.447715 11 1C11 1.55228 10.5523 2 10 2H1Z"/>
</svg>
