<svg width="24" height="24" viewBox="0 0 24 24" fill="none" xmlns="http://www.w3.org/2000/svg">
<path fill-rule="evenodd" clip-rule="evenodd" d="M21.8 12.2277C21.8 11.5177 21.7366 10.8366 21.6177 10.1821H12.2V14.0499H17.5822C17.4708 14.6617 17.2365 15.2445 16.8935 15.7632C16.5505 16.2819 16.1059 16.7257 15.5866 17.0677V19.5777H18.8177C20.7088 17.8366 21.8 15.2721 21.8 12.2277Z" fill="#4285F4"/>
<path fill-rule="evenodd" clip-rule="evenodd" d="M12.2001 22C14.9001 22 17.1634 21.1045 18.8179 19.5778L15.5868 17.0678C14.6912 17.6678 13.5457 18.0234 12.2001 18.0234C9.59565 18.0234 7.39121 16.2634 6.60454 13.9H3.26343V16.4911C4.0957 18.1477 5.37225 19.5403 6.95041 20.5131C8.52858 21.4859 10.3462 22.0008 12.2001 22Z" fill="#34A853"/>
<path fill-rule="evenodd" clip-rule="evenodd" d="M6.6044 13.8999C6.39853 13.2875 6.29273 12.646 6.29106 11.9999C6.29106 11.341 6.4044 10.6999 6.6044 10.0999V7.50879H3.26329C2.56335 8.90238 2.1992 10.4404 2.19995 11.9999C2.19995 13.6132 2.58662 15.141 3.26329 16.491L6.6044 13.8999Z" fill="#FBBC05"/>
<path fill-rule="evenodd" clip-rule="evenodd" d="M12.2001 5.97778C13.6679 5.97778 14.9868 6.48222 16.0223 7.47222L18.8912 4.60556C17.159 2.99 14.8956 2 12.2001 2C10.3462 1.99927 8.52857 2.51408 6.95041 3.48692C5.37225 4.45976 4.0957 5.85229 3.26343 7.50889L6.60454 10.1C7.39121 7.73667 9.59565 5.97778 12.2001 5.97778Z" fill="#EA4335"/>
</svg>
