<svg width="20" height="20" viewBox="0 0 20 20" fill="none" xmlns="http://www.w3.org/2000/svg">
<path d="M15.198 9.8163C15.2327 9.55588 15.2501 9.28678 15.2501 9.00033C15.2501 8.72255 15.2327 8.44477 15.1893 8.18435L16.9515 6.81282C17.1077 6.6913 17.1511 6.45692 17.0556 6.28331L15.389 3.40137C15.2848 3.21039 15.0678 3.14963 14.8768 3.21039L12.8021 4.04373C12.3681 3.71387 11.9081 3.43609 11.3959 3.22776L11.0834 1.02289C11.0487 0.814561 10.8751 0.666992 10.6667 0.666992H7.3334C7.12507 0.666992 6.96014 0.814561 6.92541 1.02289L6.61292 3.22776C6.10076 3.43609 5.63201 3.72255 5.20667 4.04373L3.13201 3.21039C2.94104 3.14095 2.72403 3.21039 2.61986 3.40137L0.961874 6.28331C0.857707 6.4656 0.892429 6.6913 1.06604 6.81282L2.82819 8.18435C2.78479 8.44477 2.75007 8.73123 2.75007 9.00033C2.75007 9.26942 2.76743 9.55588 2.81083 9.8163L1.04868 11.1878C0.892429 11.3094 0.849026 11.5437 0.944513 11.7173L2.61118 14.5993C2.71535 14.7903 2.93236 14.851 3.12333 14.7903L5.19798 13.9569C5.63201 14.2868 6.09208 14.5646 6.60423 14.7729L6.91673 16.9778C6.96014 17.1861 7.12507 17.3337 7.3334 17.3337H10.6667C10.8751 17.3337 11.0487 17.1861 11.0747 16.9778L11.3872 14.7729C11.8994 14.5646 12.3681 14.2868 12.7935 13.9569L14.8681 14.7903C15.0591 14.8597 15.2761 14.7903 15.3803 14.5993L17.0469 11.7173C17.1511 11.5264 17.1077 11.3094 16.9428 11.1878L15.198 9.8163ZM9.00007 12.1253C7.28132 12.1253 5.87507 10.7191 5.87507 9.00033C5.87507 7.28158 7.28132 5.87532 9.00007 5.87532C10.7188 5.87532 12.1251 7.28158 12.1251 9.00033C12.1251 10.7191 10.7188 12.1253 9.00007 12.1253Z" fill="#4F4F4F"/>
</svg>
