<svg width="24" height="24" viewBox="0 0 24 24" fill="none" xmlns="http://www.w3.org/2000/svg">
<path d="M21 0H19V3H16V5H19V8H21V5H24V3H21V0Z" fill="#5ED451"/>
<path d="M14.0001 1.53854C13.772 1.45904 13.5379 1.3936 13.299 1.34331C9.41902 0.523309 5.99902 3.46331 5.99902 7.20331C5.99902 9.81331 7.66902 12.0333 9.99902 12.8533V13.2033L8.70902 14.4933C8.31902 14.8833 8.31902 15.5133 8.70902 15.9033L9.99902 17.2033L8.70902 18.4933C8.31902 18.8833 8.31902 19.5233 8.70902 19.9133L11.319 22.5033C11.709 22.8933 12.349 22.8933 12.739 22.4933L13.709 21.5033C13.899 21.3033 13.999 21.0533 13.999 20.7933V12.8533C15.2355 12.4166 16.286 11.587 17.0001 10.5149V9.99982V6.99982H14.9921C14.9967 7.06708 14.999 7.13494 14.999 7.20331C14.999 8.85331 13.649 10.2033 11.999 10.2033C10.349 10.2033 8.99902 8.85331 8.99902 7.20331C8.99902 5.55331 10.349 4.20331 11.999 4.20331C12.766 4.20331 13.4682 4.49504 14.0001 4.97302V1.53854Z" fill="#5ED451"/>
</svg>
