<svg width="12" height="12" viewBox="0 0 12 12" fill="none" xmlns="http://www.w3.org/2000/svg">
<path d="M11.2496 0.759896C10.9246 0.434896 10.3996 0.434896 10.0746 0.759896L5.99961 4.82656L1.92461 0.751562C1.59961 0.426563 1.07461 0.426563 0.749609 0.751562C0.424609 1.07656 0.424609 1.60156 0.749609 1.92656L4.82461 6.00156L0.749609 10.0766C0.424609 10.4016 0.424609 10.9266 0.749609 11.2516C1.07461 11.5766 1.59961 11.5766 1.92461 11.2516L5.99961 7.17656L10.0746 11.2516C10.3996 11.5766 10.9246 11.5766 11.2496 11.2516C11.5746 10.9266 11.5746 10.4016 11.2496 10.0766L7.17461 6.00156L11.2496 1.92656C11.5663 1.6099 11.5663 1.07656 11.2496 0.759896Z"/>
</svg>
