<svg width="16" height="18" viewBox="0 0 16 18" xmlns="http://www.w3.org/2000/svg">
<path fill-rule="evenodd" clip-rule="evenodd" d="M7.41256 14H13.9983C15.0983 14 15.9983 13.1 15.9983 12V2C15.9983 0.9 15.0983 0 13.9983 0H1.99834C0.898342 0 0.00834242 0.9 0.00834242 2L7.0955e-07 11.9994C-0.000919989 13.104 0.894287 14 1.9989 14C2.55088 14 2.99835 14.4475 2.99835 14.9994V16.7929C2.99835 17.2383 3.53692 17.4614 3.8519 17.1464L6.70545 14.2929C6.89299 14.1054 7.14735 14 7.41256 14ZM2.00834 2H13.9983V12H2L2.00834 2Z"/>
<path d="M5 6H11C11.55 6 12 6.45 12 7C12 7.55 11.55 8 11 8H5C4.45 8 4 7.55 4 7C4 6.45 4.45 6 5 6ZM7.00001 11H5C4.45 11 4 10.55 4 10C4 9.45 4.45 9 5 9H7.00001C7.55001 9 8.00001 9.45 8.00001 10C8.00001 10.55 7.55001 11 7.00001 11ZM11 5H5C4.45 5 4 4.55 4 4C4 3.45 4.45 3 5 3H11C11.55 3 12 3.45 12 4C12 4.55 11.55 5 11 5Z"/>
</svg>
