<svg width="21" height="18" viewBox="0 0 21 18" fill="none" xmlns="http://www.w3.org/2000/svg">
<path d="M3 10.1793V12.9893C3 13.7193 3.4 14.3993 4.04 14.7493L9.04 17.4793C9.64 17.8093 10.36 17.8093 10.96 17.4793L15.96 14.7493C16.6 14.3993 17 13.7193 17 12.9893V10.1793L10.96 13.4793C10.36 13.8093 9.64 13.8093 9.04 13.4793L3 10.1793ZM9.04 0.519297L0.609999 5.1193C-0.0800012 5.4993 -0.0800012 6.4993 0.609999 6.8793L9.04 11.4793C9.64 11.8093 10.36 11.8093 10.96 11.4793L19 7.0893V12.9993C19 13.5493 19.45 13.9993 20 13.9993C20.55 13.9993 21 13.5493 21 12.9993V6.5893C21 6.2193 20.8 5.8893 20.48 5.7093L10.96 0.519297C10.36 0.199297 9.64 0.199297 9.04 0.519297Z" fill="#5ED451"/>
</svg>
