<svg width="20" height="20" viewBox="0 0 20 20" fill="none" xmlns="http://www.w3.org/2000/svg">
<path d="M7.50008 11.4596C5.55008 11.4596 1.66675 12.4346 1.66675 14.3763V15.8346H13.3334V14.3763C13.3334 12.4346 9.45008 11.4596 7.50008 11.4596ZM3.61675 14.168C4.31675 13.6846 6.00841 13.1263 7.50008 13.1263C8.99175 13.1263 10.6834 13.6846 11.3834 14.168H3.61675ZM7.50008 10.0013C9.10842 10.0013 10.4167 8.69297 10.4167 7.08464C10.4167 5.4763 9.10842 4.16797 7.50008 4.16797C5.89175 4.16797 4.58341 5.4763 4.58341 7.08464C4.58341 8.69297 5.89175 10.0013 7.50008 10.0013ZM7.50008 5.83464C8.19175 5.83464 8.75008 6.39297 8.75008 7.08464C8.75008 7.7763 8.19175 8.33464 7.50008 8.33464C6.80841 8.33464 6.25008 7.7763 6.25008 7.08464C6.25008 6.39297 6.80841 5.83464 7.50008 5.83464ZM13.3667 11.5096C14.3334 12.2096 15.0001 13.143 15.0001 14.3763V15.8346H18.3334V14.3763C18.3334 12.693 15.4167 11.7346 13.3667 11.5096ZM12.5001 10.0013C14.1084 10.0013 15.4167 8.69297 15.4167 7.08464C15.4167 5.4763 14.1084 4.16797 12.5001 4.16797C12.0501 4.16797 11.6334 4.2763 11.2501 4.45964C11.7751 5.2013 12.0834 6.10964 12.0834 7.08464C12.0834 8.05964 11.7751 8.96797 11.2501 9.70963C11.6334 9.89297 12.0501 10.0013 12.5001 10.0013Z" fill="#4F4F4F"/>
</svg>
