<svg width="14" height="18" viewBox="0 0 14 18" fill="none" xmlns="http://www.w3.org/2000/svg">
<path d="M6.99992 9.00033C6.08325 9.00033 5.33325 8.25033 5.33325 7.33366C5.33325 6.41699 6.08325 5.66699 6.99992 5.66699C7.91658 5.66699 8.66658 6.41699 8.66658 7.33366C8.66658 8.25033 7.91658 9.00033 6.99992 9.00033ZM11.9999 7.50033C11.9999 4.47533 9.79158 2.33366 6.99992 2.33366C4.20825 2.33366 1.99992 4.47533 1.99992 7.50033C1.99992 9.45033 3.62492 12.0337 6.99992 15.117C10.3749 12.0337 11.9999 9.45033 11.9999 7.50033ZM6.99992 0.666992C10.4999 0.666992 13.6666 3.35033 13.6666 7.50033C13.6666 10.267 11.4416 13.542 6.99992 17.3337C2.55825 13.542 0.333252 10.267 0.333252 7.50033C0.333252 3.35033 3.49992 0.666992 6.99992 0.666992Z" fill="#4F4F4F"/>
</svg>
