<svg width="25" height="24" viewBox="0 0 25 24" fill="none" xmlns="http://www.w3.org/2000/svg">
<path d="M16.8653 14.608H16.0312L15.7356 14.3231C17.0026 12.8458 17.6572 10.8304 17.2982 8.68827C16.802 5.75477 14.3525 3.41219 11.3961 3.05342C6.92994 2.50471 3.17117 6.26128 3.7202 10.7248C4.07918 13.6794 6.42314 16.1275 9.35836 16.6235C11.5017 16.9823 13.5183 16.328 14.9965 15.0618L15.2816 15.3572V16.1909L19.7689 20.6755C20.2018 21.1082 20.9092 21.1082 21.3421 20.6755C21.775 20.2429 21.775 19.5359 21.3421 19.1032L16.8653 14.608ZM10.5303 14.608C7.90131 14.608 5.77908 12.487 5.77908 9.85956C5.77908 7.23207 7.90131 5.11109 10.5303 5.11109C13.1594 5.11109 15.2816 7.23207 15.2816 9.85956C15.2816 12.487 13.1594 14.608 10.5303 14.608Z" fill="#828282"/>
</svg>
