<svg width="20" height="20" viewBox="0 0 20 20" fill="none" xmlns="http://www.w3.org/2000/svg">
<path d="M17.4999 4.16699V2.50033C17.4999 2.04009 17.1268 1.66699 16.6666 1.66699C16.2063 1.66699 15.8333 2.04009 15.8333 2.50033V4.16699H14.1666C13.7063 4.16699 13.3333 4.54009 13.3333 5.00033C13.3333 5.46056 13.7063 5.83366 14.1666 5.83366H15.8333V7.49199C15.8333 7.95223 16.2063 8.32533 16.6666 8.32533C17.1268 8.32533 17.4999 7.95223 17.4999 7.49199V5.83366H19.1666C19.6268 5.83366 19.9999 5.46056 19.9999 5.00033C19.9999 4.54009 19.6268 4.16699 19.1666 4.16699H17.4999Z" fill="#5ED451"/>
<path d="M7.08325 7.08366V14.5837L12.9166 10.8337L7.08325 7.08366Z" fill="#5ED451"/>
<path d="M11.6666 4.99616C11.6666 4.53822 11.2954 4.16699 10.8374 4.16699H2.49992C1.58325 4.16699 0.833252 4.91699 0.833252 5.83366V15.8337C0.833252 16.7503 1.58325 17.5003 2.49992 17.5003H15.8333C16.7499 17.5003 17.4999 16.7503 17.4999 15.8337V10.8337C17.4999 10.3734 17.1268 10.0003 16.6666 10.0003C16.2063 10.0003 15.8333 10.3734 15.8333 10.8337V15.842H2.49992V5.82533H10.8374C11.2954 5.82533 11.6666 5.45409 11.6666 4.99616Z" fill="#5ED451"/>
</svg>
