<svg width="24" height="24" viewBox="0 0 24 24" fill="none" xmlns="http://www.w3.org/2000/svg">
<path d="M18 19H6C5.45 19 5 18.55 5 18V6C5 5.45 5.45 5 6 5H13C13.55 5 14 4.55 14 4C14 3.45 13.55 3 13 3H5C3.89 3 3 3.9 3 5V19C3 20.1 3.9 21 5 21H19C20.1 21 21 20.1 21 19V11C21 10.45 20.55 10 20 10C19.45 10 19 10.45 19 11V18C19 18.55 18.55 19 18 19Z" fill="#202020"/>
<path d="M9.0025 12.6403V14.6667C9.0025 14.8534 9.14915 15 9.33579 15H11.3622C11.4488 15 11.5355 14.9667 11.5955 14.9L18.8745 7.62769L16.3748 5.12804L9.10249 12.4004C9.03583 12.467 9.0025 12.547 9.0025 12.6403ZM20.8075 5.69463C21.0675 5.43466 21.0675 5.01472 20.8075 4.75476L19.2477 3.19497C18.9878 2.93501 18.5678 2.93501 18.3079 3.19497L17.088 4.4148L19.5877 6.91446L20.8075 5.69463Z" fill="#202020"/>
</svg>
