<svg width="20" height="14" viewBox="0 0 20 14" fill="none" xmlns="http://www.w3.org/2000/svg">
<path d="M15.833 8.66683C15.5969 8.66683 15.3991 8.58683 15.2397 8.42683C15.0797 8.26738 14.9997 8.06961 14.9997 7.8335V6.16683H13.333C13.0969 6.16683 12.8991 6.08683 12.7397 5.92683C12.5797 5.76738 12.4997 5.56961 12.4997 5.3335C12.4997 5.09738 12.5797 4.89933 12.7397 4.73933C12.8991 4.57988 13.0969 4.50016 13.333 4.50016H14.9997V2.8335C14.9997 2.59738 15.0797 2.39933 15.2397 2.23933C15.3991 2.07989 15.5969 2.00016 15.833 2.00016C16.0691 2.00016 16.2669 2.07989 16.4263 2.23933C16.5863 2.39933 16.6663 2.59738 16.6663 2.8335V4.50016H18.333C18.5691 4.50016 18.7669 4.57988 18.9263 4.73933C19.0863 4.89933 19.1663 5.09738 19.1663 5.3335C19.1663 5.56961 19.0863 5.76738 18.9263 5.92683C18.7669 6.08683 18.5691 6.16683 18.333 6.16683H16.6663V7.8335C16.6663 8.06961 16.5863 8.26738 16.4263 8.42683C16.2669 8.58683 16.0691 8.66683 15.833 8.66683ZM7.49967 7.00016C6.58301 7.00016 5.79829 6.67377 5.14551 6.021C4.49273 5.36822 4.16634 4.5835 4.16634 3.66683C4.16634 2.75016 4.49273 1.96544 5.14551 1.31266C5.79829 0.659885 6.58301 0.333496 7.49967 0.333496C8.41634 0.333496 9.20106 0.659885 9.85384 1.31266C10.5066 1.96544 10.833 2.75016 10.833 3.66683C10.833 4.5835 10.5066 5.36822 9.85384 6.021C9.20106 6.67377 8.41634 7.00016 7.49967 7.00016ZM1.66634 13.6668C1.43023 13.6668 1.23245 13.5868 1.07301 13.4268C0.913008 13.2674 0.833008 13.0696 0.833008 12.8335V11.3335C0.833008 10.8613 0.954674 10.4271 1.19801 10.031C1.44079 9.63544 1.76356 9.3335 2.16634 9.12516C3.02745 8.69461 3.90245 8.37155 4.79134 8.156C5.68023 7.941 6.58301 7.8335 7.49967 7.8335C8.41634 7.8335 9.31912 7.941 10.208 8.156C11.0969 8.37155 11.9719 8.69461 12.833 9.12516C13.2358 9.3335 13.5586 9.63544 13.8013 10.031C14.0447 10.4271 14.1663 10.8613 14.1663 11.3335V12.8335C14.1663 13.0696 14.0863 13.2674 13.9263 13.4268C13.7669 13.5868 13.5691 13.6668 13.333 13.6668H1.66634Z" fill="#5ED451"/>
</svg>
