<svg width="16" height="13" viewBox="0 0 16 13" fill="none" xmlns="http://www.w3.org/2000/svg">
<path d="M2.00008 12.9997C1.6223 12.9997 1.30564 12.8719 1.05008 12.6163C0.794526 12.3608 0.666748 12.0497 0.666748 11.683V6.33301C0.666748 5.96634 0.797415 5.65234 1.05875 5.39101C1.31964 5.13012 1.63341 4.99967 2.00008 4.99967C2.37786 4.99967 2.69453 5.12745 2.95008 5.38301C3.20564 5.63856 3.33341 5.94968 3.33341 6.31634V11.6663C3.33341 12.033 3.20275 12.347 2.94141 12.6083C2.68053 12.8692 2.36675 12.9997 2.00008 12.9997ZM6.00008 12.9997C5.63341 12.9997 5.31964 12.8692 5.05875 12.6083C4.79741 12.347 4.66675 12.033 4.66675 11.6663V4.99967C4.66675 4.8219 4.70008 4.65256 4.76675 4.49167C4.83341 4.33034 4.92786 4.18856 5.05008 4.06634L8.75008 0.366341C8.93897 0.177452 9.1723 0.0830078 9.45008 0.0830078C9.72786 0.0830078 9.96119 0.177452 10.1501 0.366341C10.2723 0.488563 10.3585 0.630119 10.4087 0.791008C10.4585 0.952341 10.4667 1.11634 10.4334 1.28301L9.80008 4.33301H14.0001C14.3556 4.33301 14.6667 4.46634 14.9334 4.73301C15.2001 4.99967 15.3334 5.31079 15.3334 5.66634V6.99967C15.3334 7.07745 15.325 7.16079 15.3081 7.24967C15.2916 7.33856 15.2667 7.4219 15.2334 7.49967L13.2167 12.1997C13.0945 12.4663 12.9085 12.6663 12.6587 12.7997C12.4085 12.933 12.1501 12.9997 11.8834 12.9997H6.00008Z" fill="#5ED451"/>
</svg>
