<svg width="18" height="15" viewBox="0 0 18 15" fill="none" xmlns="http://www.w3.org/2000/svg">
<path d="M7.33335 6.99967C9.1743 6.99967 10.6667 5.50729 10.6667 3.66634C10.6667 1.82539 9.1743 0.333008 7.33335 0.333008C5.4924 0.333008 4.00002 1.82539 4.00002 3.66634C4.00002 5.50729 5.4924 6.99967 7.33335 6.99967Z" />
<path d="M7.89169 7.84968C7.70835 7.84134 7.52502 7.83301 7.33335 7.83301C5.31669 7.83301 3.43335 8.39134 1.82502 9.34967C1.09169 9.78301 0.666687 10.5997 0.666687 11.458V13.6663H8.38335C7.72502 12.7247 7.33335 11.5747 7.33335 10.333C7.33335 9.44134 7.54169 8.60801 7.89169 7.84968Z" />
<path d="M16.2917 10.333C16.2917 10.1497 16.2667 9.98301 16.2417 9.80801L17.1917 8.96634L16.3584 7.52467L15.15 7.93301C14.8834 7.70801 14.5834 7.53301 14.25 7.40801L14 6.16634H12.3334L12.0834 7.40801C11.75 7.53301 11.45 7.70801 11.1834 7.93301L9.97502 7.52467L9.14169 8.96634L10.0917 9.80801C10.0667 9.98301 10.0417 10.1497 10.0417 10.333C10.0417 10.5163 10.0667 10.683 10.0917 10.858L9.14169 11.6997L9.97502 13.1413L11.1834 12.733C11.45 12.958 11.75 13.133 12.0834 13.258L12.3334 14.4997H14L14.25 13.258C14.5834 13.133 14.8834 12.958 15.15 12.733L16.3584 13.1413L17.1917 11.6997L16.2417 10.858C16.2667 10.683 16.2917 10.5163 16.2917 10.333ZM13.1667 11.9997C12.25 11.9997 11.5 11.2497 11.5 10.333C11.5 9.41634 12.25 8.66634 13.1667 8.66634C14.0834 8.66634 14.8334 9.41634 14.8334 10.333C14.8334 11.2497 14.0834 11.9997 13.1667 11.9997Z"/>
</svg>
