<svg width="21" height="20" viewBox="0 0 21 20" fill="none" xmlns="http://www.w3.org/2000/svg">
<path d="M15.8334 5.41699C15.8334 6.7977 14.7141 7.91699 13.3334 7.91699C12.8354 7.91699 12.3715 7.7714 11.9818 7.52045C11.7818 7.39168 11.5257 7.35933 11.3197 7.47826L9.42805 8.57043C9.20196 8.70096 9.10548 8.97213 9.14201 9.23063C9.15832 9.34596 9.16675 9.46383 9.16675 9.58366C9.16675 9.66415 9.16294 9.74376 9.1555 9.82231C9.13199 10.0706 9.2306 10.3249 9.44661 10.4497L13.0101 12.507C13.2142 12.6249 13.4678 12.5942 13.6671 12.4683C14.0529 12.2247 14.51 12.0837 15.0001 12.0837C16.3808 12.0837 17.5001 13.2029 17.5001 14.5837C17.5001 15.9644 16.3808 17.0837 15.0001 17.0837C13.6194 17.0837 12.5001 15.9644 12.5001 14.5837C12.5001 14.3266 12.3883 14.0726 12.1657 13.944L8.59452 11.8822C8.3104 11.7182 7.96092 11.7482 7.65989 11.8786C7.35547 12.0105 7.01965 12.0837 6.66675 12.0837C5.28604 12.0837 4.16675 10.9644 4.16675 9.58366C4.16675 8.20295 5.28604 7.08366 6.66675 7.08366C7.02849 7.08366 7.37228 7.16049 7.68271 7.29872C7.98601 7.43378 8.34004 7.46654 8.62758 7.30053L10.3994 6.27756C10.6962 6.10623 10.8334 5.75966 10.8334 5.41699C10.8334 4.03628 11.9527 2.91699 13.3334 2.91699C14.7141 2.91699 15.8334 4.03628 15.8334 5.41699Z" fill="#828282"/>
</svg>
