<svg width="16" height="18" viewBox="0 0 16 18" fill="none" xmlns="http://www.w3.org/2000/svg">
<path d="M5.5 8.1665H3.83333V9.83317H5.5V8.1665ZM8.83333 8.1665H7.16667V9.83317H8.83333V8.1665ZM12.1667 8.1665H10.5V9.83317H12.1667V8.1665ZM13.8333 2.33317H13V0.666504H11.3333V2.33317H4.66667V0.666504H3V2.33317H2.16667C1.24167 2.33317 0.508333 3.08317 0.508333 3.99984L0.5 15.6665C0.5 16.5832 1.24167 17.3332 2.16667 17.3332H13.8333C14.75 17.3332 15.5 16.5832 15.5 15.6665V3.99984C15.5 3.08317 14.75 2.33317 13.8333 2.33317ZM13.8333 14.6665C13.8333 15.2188 13.3856 15.6665 12.8333 15.6665H3.16667C2.61438 15.6665 2.16667 15.2188 2.16667 14.6665V7.49984C2.16667 6.94755 2.61438 6.49984 3.16667 6.49984H12.8333C13.3856 6.49984 13.8333 6.94755 13.8333 7.49984V14.6665Z" fill="#202020"/>
</svg>
