<svg width="24" height="24" viewBox="0 0 24 24" fill="none" xmlns="http://www.w3.org/2000/svg">
<path d="M20.0701 17.5861C19.7676 18.2848 19.4096 18.928 18.9948 19.5194C18.4294 20.3255 17.9665 20.8835 17.6097 21.1934C17.0566 21.702 16.4641 21.9625 15.8295 21.9773C15.374 21.9773 14.8246 21.8477 14.1851 21.5847C13.5435 21.323 12.9539 21.1934 12.4148 21.1934C11.8494 21.1934 11.243 21.323 10.5944 21.5847C9.94477 21.8477 9.42146 21.9847 9.02135 21.9983C8.41285 22.0242 7.80633 21.7563 7.20092 21.1934C6.81451 20.8564 6.33119 20.2786 5.7522 19.4601C5.13099 18.5861 4.62026 17.5725 4.22015 16.417C3.79165 15.1689 3.57684 13.9603 3.57684 12.7902C3.57684 11.4498 3.86646 10.2938 4.44657 9.3251C4.90248 8.54697 5.509 7.93316 6.26811 7.48256C7.02722 7.03195 7.84744 6.80233 8.73074 6.78764C9.21406 6.78764 9.84786 6.93714 10.6355 7.23096C11.4209 7.52577 11.9252 7.67527 12.1463 7.67527C12.3116 7.67527 12.8718 7.50046 13.8216 7.15195C14.7197 6.82875 15.4777 6.69493 16.0986 6.74764C17.7813 6.88344 19.0454 7.54675 19.8862 8.74178C18.3813 9.65361 17.6369 10.9307 17.6517 12.5691C17.6652 13.8452 18.1282 14.9072 19.038 15.7503C19.4504 16.1417 19.9109 16.4441 20.4232 16.659C20.3121 16.9812 20.1948 17.2898 20.0701 17.5861ZM16.211 2.40011C16.211 3.40034 15.8456 4.33425 15.1172 5.19867C14.2382 6.2263 13.175 6.82011 12.0221 6.72641C12.0074 6.60641 11.9989 6.48012 11.9989 6.34741C11.9989 5.38719 12.4169 4.35956 13.1592 3.51934C13.5298 3.09392 14.0012 2.74019 14.5728 2.45801C15.1431 2.18005 15.6826 2.02632 16.19 2C16.2048 2.13372 16.211 2.26744 16.211 2.4001V2.40011Z" fill="#303030"/>
</svg>
