<svg width="20" height="20" viewBox="0 0 20 20" fill="none" xmlns="http://www.w3.org/2000/svg">
<path d="M10 10.0003C9.08337 10.0003 8.33337 9.25033 8.33337 8.33366C8.33337 7.41699 9.08337 6.66699 10 6.66699C10.9167 6.66699 11.6667 7.41699 11.6667 8.33366C11.6667 9.25033 10.9167 10.0003 10 10.0003ZM15 8.50033C15 5.47533 12.7917 3.33366 10 3.33366C7.20837 3.33366 5.00004 5.47533 5.00004 8.50033C5.00004 10.4503 6.62504 13.0337 10 16.117C13.375 13.0337 15 10.4503 15 8.50033ZM10 1.66699C13.5 1.66699 16.6667 4.35033 16.6667 8.50033C16.6667 11.267 14.4417 14.542 10 18.3337C5.55837 14.542 3.33337 11.267 3.33337 8.50033C3.33337 4.35033 6.50004 1.66699 10 1.66699Z" fill="#4F4F4F"/>
</svg>
