<svg width="16" height="16" viewBox="0 0 16 16" fill="none" xmlns="http://www.w3.org/2000/svg">
<path d="M7.99325 1.33301C4.31325 1.33301 1.33325 4.31967 1.33325 7.99967C1.33325 11.6797 4.31325 14.6663 7.99325 14.6663C11.6799 14.6663 14.6666 11.6797 14.6666 7.99967C14.6666 4.31967 11.6799 1.33301 7.99325 1.33301ZM12.6133 5.33301H10.6466C10.4333 4.49967 10.1266 3.69967 9.72659 2.95967C10.9533 3.37967 11.9733 4.23301 12.6133 5.33301ZM7.99992 2.69301C8.55325 3.49301 8.98659 4.37967 9.27325 5.33301H6.72659C7.01325 4.37967 7.44659 3.49301 7.99992 2.69301ZM2.83992 9.33301C2.73325 8.90634 2.66659 8.45967 2.66659 7.99967C2.66659 7.53967 2.73325 7.09301 2.83992 6.66634H5.09325C5.03992 7.10634 4.99992 7.54634 4.99992 7.99967C4.99992 8.45301 5.03992 8.89301 5.09325 9.33301H2.83992ZM3.38659 10.6663H5.35325C5.56659 11.4997 5.87325 12.2997 6.27325 13.0397C5.04659 12.6197 4.02659 11.773 3.38659 10.6663ZM5.35325 5.33301H3.38659C4.02659 4.22634 5.04659 3.37967 6.27325 2.95967C5.87325 3.69967 5.56659 4.49967 5.35325 5.33301ZM7.99992 13.3063C7.44659 12.5063 7.01325 11.6197 6.72659 10.6663H9.27325C8.98659 11.6197 8.55325 12.5063 7.99992 13.3063ZM9.55992 9.33301H6.43992C6.37992 8.89301 6.33325 8.45301 6.33325 7.99967C6.33325 7.54634 6.37992 7.09967 6.43992 6.66634H9.55992C9.61992 7.09967 9.66659 7.54634 9.66659 7.99967C9.66659 8.45301 9.61992 8.89301 9.55992 9.33301ZM9.72659 13.0397C10.1266 12.2997 10.4333 11.4997 10.6466 10.6663H12.6133C11.9733 11.7663 10.9533 12.6197 9.72659 13.0397ZM10.9066 9.33301C10.9599 8.89301 10.9999 8.45301 10.9999 7.99967C10.9999 7.54634 10.9599 7.10634 10.9066 6.66634H13.1599C13.2666 7.09301 13.3333 7.53967 13.3333 7.99967C13.3333 8.45967 13.2666 8.90634 13.1599 9.33301H10.9066Z" fill="#4F4F4F"/>
</svg>
