<svg width="20" height="20" viewBox="0 0 20 20" fill="none" xmlns="http://www.w3.org/2000/svg">
<path d="M4.87508 14.2513C5.58341 13.7096 6.37508 13.2824 7.25008 12.9696C8.12508 12.6574 9.04175 12.5013 10.0001 12.5013C10.9584 12.5013 11.8751 12.6574 12.7501 12.9696C13.6251 13.2824 14.4167 13.7096 15.1251 14.2513C15.6112 13.6819 15.9898 13.036 16.2609 12.3138C16.5315 11.5916 16.6667 10.8207 16.6667 10.0013C16.6667 8.15408 16.0176 6.58102 14.7192 5.28214C13.4204 3.9838 11.8473 3.33464 10.0001 3.33464C8.15286 3.33464 6.58008 3.9838 5.28175 5.28214C3.98286 6.58102 3.33341 8.15408 3.33341 10.0013C3.33341 10.8207 3.46897 11.5916 3.74008 12.3138C4.01064 13.036 4.38897 13.6819 4.87508 14.2513ZM10.0001 10.8346C9.18064 10.8346 8.48953 10.5535 7.92675 9.9913C7.36453 9.42852 7.08341 8.73741 7.08341 7.91797C7.08341 7.09852 7.36453 6.40741 7.92675 5.84464C8.48953 5.28241 9.18064 5.0013 10.0001 5.0013C10.8195 5.0013 11.5106 5.28241 12.0734 5.84464C12.6356 6.40741 12.9167 7.09852 12.9167 7.91797C12.9167 8.73741 12.6356 9.42852 12.0734 9.9913C11.5106 10.5535 10.8195 10.8346 10.0001 10.8346ZM10.0001 18.3346C8.8473 18.3346 7.76397 18.1157 6.75008 17.678C5.73619 17.2407 4.85425 16.6471 4.10425 15.8971C3.35425 15.1471 2.76064 14.2652 2.32341 13.2513C1.88564 12.2374 1.66675 11.1541 1.66675 10.0013C1.66675 8.84852 1.88564 7.76519 2.32341 6.7513C2.76064 5.73741 3.35425 4.85547 4.10425 4.10547C4.85425 3.35547 5.73619 2.76158 6.75008 2.3238C7.76397 1.88658 8.8473 1.66797 10.0001 1.66797C11.1529 1.66797 12.2362 1.88658 13.2501 2.3238C14.264 2.76158 15.1459 3.35547 15.8959 4.10547C16.6459 4.85547 17.2395 5.73741 17.6767 6.7513C18.1145 7.76519 18.3334 8.84852 18.3334 10.0013C18.3334 11.1541 18.1145 12.2374 17.6767 13.2513C17.2395 14.2652 16.6459 15.1471 15.8959 15.8971C15.1459 16.6471 14.264 17.2407 13.2501 17.678C12.2362 18.1157 11.1529 18.3346 10.0001 18.3346Z"/>
</svg>
