<svg width="20" height="20" viewBox="0 0 20 20" fill="none" xmlns="http://www.w3.org/2000/svg">
<path d="M11.8748 20H8.12485C7.87485 20 7.65818 19.9167 7.47485 19.75C7.29152 19.5833 7.18318 19.375 7.14985 19.125L6.84985 16.8C6.63318 16.7167 6.42918 16.6167 6.23785 16.5C6.04585 16.3833 5.85818 16.2583 5.67485 16.125L3.49985 17.025C3.26652 17.1083 3.03318 17.1167 2.79985 17.05C2.56652 16.9833 2.38318 16.8417 2.24985 16.625L0.399849 13.4C0.266516 13.1833 0.224849 12.95 0.274849 12.7C0.324849 12.45 0.449849 12.25 0.649849 12.1L2.52485 10.675C2.50818 10.5583 2.49985 10.4457 2.49985 10.337C2.49985 10.229 2.49985 10.1167 2.49985 10C2.49985 9.88333 2.49985 9.77067 2.49985 9.662C2.49985 9.554 2.50818 9.44167 2.52485 9.325L0.649849 7.9C0.449849 7.75 0.324849 7.55 0.274849 7.3C0.224849 7.05 0.266516 6.81667 0.399849 6.6L2.24985 3.375C2.36652 3.14167 2.54552 2.99567 2.78685 2.937C3.02885 2.879 3.26652 2.89167 3.49985 2.975L5.67485 3.875C5.85818 3.74167 6.04985 3.61667 6.24985 3.5C6.44985 3.38333 6.64985 3.28333 6.84985 3.2L7.14985 0.875C7.18318 0.625 7.29152 0.416667 7.47485 0.25C7.65818 0.0833333 7.87485 0 8.12485 0H11.8748C12.1248 0 12.3415 0.0833333 12.5248 0.25C12.7082 0.416667 12.8165 0.625 12.8498 0.875L13.1498 3.2C13.3665 3.28333 13.5708 3.38333 13.7628 3.5C13.9542 3.61667 14.1415 3.74167 14.3249 3.875L16.4998 2.975C16.7332 2.89167 16.9665 2.88333 17.1999 2.95C17.4332 3.01667 17.6165 3.15833 17.7498 3.375L19.5998 6.6C19.7332 6.81667 19.7748 7.05 19.7248 7.3C19.6748 7.55 19.5498 7.75 19.3498 7.9L17.4748 9.325C17.4915 9.44167 17.4998 9.554 17.4998 9.662C17.4998 9.77067 17.4998 9.88333 17.4998 10C17.4998 10.1167 17.4998 10.229 17.4998 10.337C17.4998 10.4457 17.4832 10.5583 17.4499 10.675L19.3249 12.1C19.5249 12.25 19.6499 12.45 19.6999 12.7C19.7499 12.95 19.7082 13.1833 19.5749 13.4L17.7248 16.6C17.5915 16.8167 17.4042 16.9627 17.1628 17.038C16.9208 17.1127 16.6832 17.1083 16.4499 17.025L14.3249 16.125C14.1415 16.2583 13.9498 16.3833 13.7498 16.5C13.5498 16.6167 13.3498 16.7167 13.1498 16.8L12.8498 19.125C12.8165 19.375 12.7082 19.5833 12.5248 19.75C12.3415 19.9167 12.1248 20 11.8748 20ZM10.0498 13.5C11.0165 13.5 11.8415 13.1583 12.5248 12.475C13.2082 11.7917 13.5498 10.9667 13.5498 10C13.5498 9.03333 13.2082 8.20833 12.5248 7.525C11.8415 6.84167 11.0165 6.5 10.0498 6.5C9.06652 6.5 8.23718 6.84167 7.56185 7.525C6.88718 8.20833 6.54985 9.03333 6.54985 10C6.54985 10.9667 6.88718 11.7917 7.56185 12.475C8.23718 13.1583 9.06652 13.5 10.0498 13.5Z" fill="#5ED451"/>
</svg>
