<svg width="21" height="20" viewBox="0 0 21 20" fill="none" xmlns="http://www.w3.org/2000/svg">
<path d="M2.66667 17.5003C2.19444 17.5003 1.79861 17.3406 1.47917 17.0212C1.15972 16.7017 1 16.3128 1 15.8545V9.16699C1 8.70866 1.16333 8.31616 1.49 7.98949C1.81611 7.66338 2.20833 7.50033 2.66667 7.50033C3.13889 7.50033 3.53472 7.66005 3.85417 7.97949C4.17361 8.29894 4.33333 8.68783 4.33333 9.14616V15.8337C4.33333 16.292 4.17 16.6845 3.84333 17.0112C3.51722 17.3373 3.125 17.5003 2.66667 17.5003ZM7.66667 17.5003C7.20833 17.5003 6.81611 17.3373 6.49 17.0112C6.16333 16.6845 6 16.292 6 15.8337V7.50033C6 7.2781 6.04167 7.06644 6.125 6.86533C6.20833 6.66366 6.32639 6.48644 6.47917 6.33366L11.1042 1.70866C11.3403 1.47255 11.6319 1.35449 11.9792 1.35449C12.3264 1.35449 12.6181 1.47255 12.8542 1.70866C13.0069 1.86144 13.1147 2.03838 13.1775 2.23949C13.2397 2.44116 13.25 2.64616 13.2083 2.85449L12.4167 6.66699H17.6667C18.1111 6.66699 18.5 6.83366 18.8333 7.16699C19.1667 7.50033 19.3333 7.88921 19.3333 8.33366V10.0003C19.3333 10.0975 19.3228 10.2017 19.3017 10.3128C19.2811 10.4239 19.25 10.5281 19.2083 10.6253L16.6875 16.5003C16.5347 16.8337 16.3022 17.0837 15.99 17.2503C15.6772 17.417 15.3542 17.5003 15.0208 17.5003H7.66667ZM7.66667 15.8337H15.1667L17.6667 10.0003V8.33366H10.1667L11.2917 3.87533L7.66667 7.50033V15.8337ZM7.66667 15.8337V7.50033V8.33366V10.0003V15.8337Z" fill="#828282"/>
</svg>
