<svg width="21" height="20" viewBox="0 0 21 20" fill="none" xmlns="http://www.w3.org/2000/svg">
<path d="M2.16675 16.3128V3.33366C2.16675 2.87533 2.33008 2.48283 2.65675 2.15616C2.98286 1.83005 3.37508 1.66699 3.83341 1.66699H17.1667C17.6251 1.66699 18.0176 1.83005 18.3442 2.15616C18.6704 2.48283 18.8334 2.87533 18.8334 3.33366V13.3337C18.8334 13.792 18.6704 14.1845 18.3442 14.5112C18.0176 14.8373 17.6251 15.0003 17.1667 15.0003H5.50008L3.58341 16.917C3.31953 17.1809 3.0173 17.2398 2.67675 17.0937C2.33675 16.9481 2.16675 16.6878 2.16675 16.3128ZM3.83341 14.3128L4.81258 13.3337H17.1667V3.33366H3.83341V14.3128ZM3.83341 3.33366V13.3337V14.3128V3.33366Z" fill="#828282"/>
</svg>
