<svg width="24" height="24" viewBox="0 0 24 24" fill="none" xmlns="http://www.w3.org/2000/svg">
<path fill-rule="evenodd" clip-rule="evenodd" d="M11.4126 17H17.9983C19.0983 17 19.9983 16.1 19.9983 15V5C19.9983 3.9 19.0983 3 17.9983 3H5.99834C4.89834 3 4.00834 3.9 4.00834 5L4 14.9994C3.99908 16.104 4.89429 17 5.9989 17C6.55088 17 6.99835 17.4475 6.99835 17.9994V19.7929C6.99835 20.2383 7.53692 20.4614 7.8519 20.1464L10.7055 17.2929C10.893 17.1054 11.1473 17 11.4126 17ZM6.00834 5H17.9983V15H6L6.00834 5Z" fill="#828282"/>
<path d="M9 9H15C15.55 9 16 9.45 16 10C16 10.55 15.55 11 15 11H9C8.45 11 8 10.55 8 10C8 9.45 8.45 9 9 9ZM11 14H9C8.45 14 8 13.55 8 13C8 12.45 8.45 12 9 12H11C11.55 12 12 12.45 12 13C12 13.55 11.55 14 11 14ZM15 8H9C8.45 8 8 7.55 8 7C8 6.45 8.45 6 9 6H15C15.55 6 16 6.45 16 7C16 7.55 15.55 8 15 8Z" fill="#828282"/>
</svg>
