<svg width="18" height="12" viewBox="0 0 18 12" fill="none" xmlns="http://www.w3.org/2000/svg">
<path d="M6.49999 7.45866C4.54999 7.45866 0.666656 8.43366 0.666656 10.3753V11.8337H12.3333V10.3753C12.3333 8.43366 8.44999 7.45866 6.49999 7.45866ZM2.61666 10.167C3.31666 9.68366 5.00832 9.12533 6.49999 9.12533C7.99166 9.12533 9.68332 9.68366 10.3833 10.167H2.61666ZM6.49999 6.00033C8.10832 6.00033 9.41666 4.69199 9.41666 3.08366C9.41666 1.47533 8.10832 0.166992 6.49999 0.166992C4.89166 0.166992 3.58332 1.47533 3.58332 3.08366C3.58332 4.69199 4.89166 6.00033 6.49999 6.00033ZM6.49999 1.83366C7.19166 1.83366 7.74999 2.39199 7.74999 3.08366C7.74999 3.77533 7.19166 4.33366 6.49999 4.33366C5.80832 4.33366 5.24999 3.77533 5.24999 3.08366C5.24999 2.39199 5.80832 1.83366 6.49999 1.83366ZM12.3667 7.50866C13.3333 8.20866 14 9.14199 14 10.3753V11.8337H17.3333V10.3753C17.3333 8.69199 14.4167 7.73366 12.3667 7.50866V7.50866ZM11.5 6.00033C13.1083 6.00033 14.4167 4.69199 14.4167 3.08366C14.4167 1.47533 13.1083 0.166992 11.5 0.166992C11.05 0.166992 10.6333 0.275325 10.25 0.458659C10.775 1.20033 11.0833 2.10866 11.0833 3.08366C11.0833 4.05866 10.775 4.96699 10.25 5.70866C10.6333 5.89199 11.05 6.00033 11.5 6.00033Z" fill="#4F4F4F"/>
</svg>
