<svg width="14" height="15" viewBox="0 0 14 15" fill="none" xmlns="http://www.w3.org/2000/svg">
<path fill-rule="evenodd" clip-rule="evenodd" d="M6.51039 12.1667H11.9985C12.9152 12.1667 13.6652 11.4167 13.6652 10.5V2.16667C13.6652 1.25 12.9152 0.5 11.9985 0.5H1.99854C1.08187 0.5 0.340204 1.25 0.340204 2.16667L0.333253 10.4995C0.332485 11.42 1.07849 12.1667 1.999 12.1667C2.45898 12.1667 2.83188 12.5396 2.83188 12.9995V14.4941C2.83188 14.8653 3.28068 15.0512 3.54317 14.7887L5.92113 12.4107C6.07741 12.2545 6.28937 12.1667 6.51039 12.1667ZM2.00687 2.16667H11.9985V10.5H1.99992L2.00687 2.16667Z" fill="#5ED451"/>
<path d="M4.49992 5.5H9.49992C9.95826 5.5 10.3333 5.875 10.3333 6.33333C10.3333 6.79167 9.95826 7.16667 9.49992 7.16667H4.49992C4.04159 7.16667 3.66659 6.79167 3.66659 6.33333C3.66659 5.875 4.04159 5.5 4.49992 5.5ZM6.16659 9.66667H4.49992C4.04159 9.66667 3.66659 9.29167 3.66659 8.83333C3.66659 8.375 4.04159 8 4.49992 8H6.16659C6.62492 8 6.99992 8.375 6.99992 8.83333C6.99992 9.29167 6.62492 9.66667 6.16659 9.66667ZM9.49992 4.66667H4.49992C4.04159 4.66667 3.66659 4.29167 3.66659 3.83333C3.66659 3.375 4.04159 3 4.49992 3H9.49992C9.95826 3 10.3333 3.375 10.3333 3.83333C10.3333 4.29167 9.95826 4.66667 9.49992 4.66667Z" fill="#5ED451"/>
</svg>
