<svg width="5" height="5" viewBox="0 0 5 5" fill="none" xmlns="http://www.w3.org/2000/svg">
<path d="M0.794922 2.91699C0.794922 2.64844 0.845052 2.396 0.945312 2.15967C1.04915 1.91976 1.1888 1.71208 1.36426 1.53662C1.53971 1.36117 1.74382 1.22331 1.97656 1.12305C2.21289 1.01921 2.46354 0.967285 2.72852 0.967285C2.99707 0.967285 3.24951 1.01921 3.48584 1.12305C3.72217 1.22331 3.92806 1.36117 4.10352 1.53662C4.28255 1.71208 4.4222 1.91976 4.52246 2.15967C4.6263 2.396 4.67822 2.64844 4.67822 2.91699C4.67822 3.18197 4.6263 3.43262 4.52246 3.66895C4.4222 3.90527 4.28255 4.11117 4.10352 4.28662C3.92806 4.46208 3.72217 4.60173 3.48584 4.70557C3.24951 4.80583 2.99707 4.85596 2.72852 4.85596C2.46354 4.85596 2.21289 4.80583 1.97656 4.70557C1.74382 4.60173 1.53971 4.46208 1.36426 4.28662C1.1888 4.11117 1.04915 3.90527 0.945312 3.66895C0.845052 3.43262 0.794922 3.18197 0.794922 2.91699Z" fill="#4F4F4F"/>
</svg>
