<svg width="18" height="10" viewBox="0 0 18 10" fill="none" xmlns="http://www.w3.org/2000/svg">
<path d="M5.25002 9.58268C3.97224 9.58268 2.88891 9.13824 2.00002 8.24935C1.11113 7.36046 0.666687 6.27713 0.666687 4.99935C0.666687 3.72157 1.11113 2.63824 2.00002 1.74935C2.88891 0.86046 3.97224 0.416016 5.25002 0.416016H14C14.9167 0.416016 15.7014 0.742405 16.3542 1.39518C17.007 2.04796 17.3334 2.83268 17.3334 3.74935C17.3334 4.66602 17.007 5.45074 16.3542 6.10351C15.7014 6.75629 14.9167 7.08268 14 7.08268H6.08335C5.50002 7.08268 5.00696 6.88129 4.60419 6.47851C4.20141 6.07574 4.00002 5.58268 4.00002 4.99935C4.00002 4.41602 4.20141 3.92296 4.60419 3.52018C5.00696 3.1174 5.50002 2.91602 6.08335 2.91602H13.375C13.5556 2.91602 13.705 2.9749 13.8234 3.09268C13.9411 3.21102 14 3.36046 14 3.54102C14 3.72157 13.9411 3.87074 13.8234 3.98852C13.705 4.10685 13.5556 4.16602 13.375 4.16602H6.08335C5.84724 4.16602 5.64947 4.24574 5.49002 4.40518C5.33002 4.56518 5.25002 4.76324 5.25002 4.99935C5.25002 5.23546 5.33002 5.43324 5.49002 5.59268C5.64947 5.75268 5.84724 5.83268 6.08335 5.83268H14C14.5834 5.83268 15.0764 5.63129 15.4792 5.22851C15.882 4.82574 16.0834 4.33268 16.0834 3.74935C16.0834 3.16602 15.882 2.67296 15.4792 2.27018C15.0764 1.8674 14.5834 1.66602 14 1.66602H5.25002C4.33335 1.66602 3.54863 1.9924 2.89585 2.64518C2.24308 3.29796 1.91669 4.08268 1.91669 4.99935C1.91669 5.91602 2.24308 6.70074 2.89585 7.35351C3.54863 8.00629 4.33335 8.33268 5.25002 8.33268H13.375C13.5556 8.33268 13.705 8.39157 13.8234 8.50935C13.9411 8.62768 14 8.77713 14 8.95768C14 9.13824 13.9411 9.28768 13.8234 9.40601C13.705 9.52379 13.5556 9.58268 13.375 9.58268H5.25002Z" fill="#5ED451"/>
</svg>
