<svg width="12" height="14" viewBox="0 0 12 14" fill="none" xmlns="http://www.w3.org/2000/svg">
<path d="M5.99999 6.9987C5.26666 6.9987 4.66666 6.3987 4.66666 5.66536C4.66666 4.93203 5.26666 4.33203 5.99999 4.33203C6.73332 4.33203 7.33332 4.93203 7.33332 5.66536C7.33332 6.3987 6.73332 6.9987 5.99999 6.9987ZM9.99999 5.7987C9.99999 3.3787 8.23332 1.66536 5.99999 1.66536C3.76666 1.66536 1.99999 3.3787 1.99999 5.7987C1.99999 7.3587 3.29999 9.42536 5.99999 11.892C8.69999 9.42536 9.99999 7.3587 9.99999 5.7987ZM5.99999 0.332031C8.79999 0.332031 11.3333 2.4787 11.3333 5.7987C11.3333 8.01203 9.55332 10.632 5.99999 13.6654C2.44666 10.632 0.666656 8.01203 0.666656 5.7987C0.666656 2.4787 3.19999 0.332031 5.99999 0.332031Z" fill="#4F4F4F"/>
</svg>
