<svg width="160" height="60" viewBox="0 0 160 60" fill="none" xmlns="http://www.w3.org/2000/svg">
<path fill-rule="evenodd" clip-rule="evenodd" d="M40.3622 23.564C45.3569 23.564 49.406 19.515 49.406 14.5202C49.406 9.52544 45.3569 5.47638 40.3622 5.47638C35.3674 5.47638 31.3184 9.52544 31.3184 14.5202C31.3184 15.7103 31.5482 16.8468 31.966 17.8876L21.4633 24.5148C19.8047 22.5207 17.3048 21.2512 14.5083 21.2512C9.51455 21.2512 5.46631 25.2995 5.46631 30.2932C5.46631 35.287 9.51455 39.3352 14.5083 39.3352C17.379 39.3352 19.9373 37.9974 21.5936 35.9113L31.857 42.8742C31.5084 43.836 31.3184 44.8739 31.3184 45.9561C31.3184 50.9508 35.3674 54.9999 40.3622 54.9999C45.3569 54.9999 49.406 50.9508 49.406 45.9561C49.406 40.9613 45.3569 36.9122 40.3622 36.9122C37.3485 36.9122 34.6791 38.3863 33.0357 40.6528L22.8649 33.7527C23.3066 32.687 23.5503 31.5186 23.5503 30.2932C23.5503 28.9928 23.2758 27.7565 22.7815 26.6391L33.2114 20.0578C34.8658 22.191 37.4537 23.564 40.3622 23.564ZM40.3622 21.064C43.9762 21.064 46.906 18.1343 46.906 14.5202C46.906 10.9061 43.9762 7.97638 40.3622 7.97638C36.7481 7.97638 33.8184 10.9061 33.8184 14.5202C33.8184 18.1343 36.7481 21.064 40.3622 21.064ZM14.5083 36.8352C18.1214 36.8352 21.0503 33.9063 21.0503 30.2932C21.0503 26.6802 18.1214 23.7512 14.5083 23.7512C10.8953 23.7512 7.96631 26.6802 7.96631 30.2932C7.96631 33.9063 10.8953 36.8352 14.5083 36.8352ZM46.906 45.9561C46.906 49.5701 43.9762 52.4999 40.3622 52.4999C36.7481 52.4999 33.8184 49.5701 33.8184 45.9561C33.8184 42.342 36.7481 39.4122 40.3622 39.4122C43.9762 39.4122 46.906 42.342 46.906 45.9561Z" fill="url(#paint0_linear_7113_27172)"/>
<path fill-rule="evenodd" clip-rule="evenodd" d="M71.7537 44.7799C70.4226 44.8749 69.2584 44.7169 68.2612 44.3058C67.2905 43.8661 66.5492 43.4502 66.0373 43.0581C65.9525 43.5542 65.761 45.2803 65.4162 45.5018C65.0715 45.7234 62.4702 45.5593 62.5004 44.3552L63.6672 15.8234C63.7085 15.2044 64.3239 14.8524 65.5134 14.7675L65.8957 14.7403C66.5188 14.6958 66.9635 14.7444 67.2298 14.8862C67.5244 15.0259 67.6822 15.2423 67.7031 15.5355L67.2304 27.4629C67.9831 26.0431 68.8908 25.0006 69.9535 24.3354C71.0427 23.6416 72.1961 23.2512 73.414 23.1644C74.2636 23.1037 75.1511 23.1744 76.0764 23.3762C77.0282 23.5494 77.9234 23.9275 78.762 24.5106C79.6007 25.0937 80.3007 25.9277 80.862 27.0128C81.4498 28.0691 81.8035 29.4369 81.9233 31.1159C82.1021 33.6212 81.8077 35.879 81.0402 37.8892C80.2708 39.8729 79.0905 41.484 77.4994 42.7226C75.9347 43.9325 74.0194 44.6183 71.7537 44.7799ZM71.0157 41.618C72.4601 41.515 73.6458 41.1759 74.5726 40.6008C75.4975 39.9991 76.1976 39.2393 76.673 38.3214C77.1767 37.4014 77.5019 36.3737 77.6486 35.2381C77.8217 34.0739 77.8655 32.8921 77.78 31.6928C77.6792 30.2802 77.3879 29.1893 76.906 28.4201C76.4505 27.6222 75.8432 27.0896 75.084 26.8223C74.3229 26.5283 73.4892 26.4137 72.5829 26.4783C71.9882 26.5208 71.3359 26.7548 70.6262 27.1805C69.9428 27.5775 69.2776 28.2277 68.6304 29.131C67.9832 30.0344 67.4438 31.2516 67.0121 32.7825C66.1348 35.6512 66.0373 39.9356 68.3051 41.3293C68.8009 41.634 69.9678 41.6928 71.0157 41.618Z" fill="#202020"/>
<path d="M91.0297 45.6458C89.5155 45.7253 88.4082 45.3686 87.7078 44.5759C87.0059 43.7565 86.6917 42.4084 86.7651 40.5316L88.1581 16.2974C88.3982 13.358 92.5168 13.4529 92.227 16.0439L90.8206 40.8406C90.7928 41.404 90.8724 41.8279 91.0592 42.1124C91.5068 42.6487 92.7663 42.6025 93.3523 42.3927C94.1351 42.1124 94.1765 41.6482 94.4474 41.634C95.087 41.6004 95.116 42.9009 94.563 43.8023C94.0101 44.7037 93.2892 45.0323 92.6434 45.2803C92.0246 45.5 91.4867 45.6219 91.0297 45.6458Z" fill="#202020"/>
<path d="M139.18 33.8721L132.199 41.6771C130.536 43.9839 134.039 46.1626 135.494 43.7641C137.359 41.5929 141.298 36.6627 141.298 36.6627C141.298 36.6627 143.188 40.5841 144.264 42.4436C144.553 42.9421 144.846 43.4492 145.142 43.9736C146.876 47.0478 149.724 45.984 149.54 44.0086C149.546 43.7997 149.457 43.5492 149.274 43.2571L144.255 34.0365L150.823 26.2749C151.102 25.9685 151.244 25.7109 151.25 25.502C151.262 25.0269 150.55 23.4964 149.496 23.5342C148.441 23.5721 147.814 24.1853 147.515 24.5942C145.732 26.6637 142.216 31.0815 142.216 31.0815C142.216 31.0815 141.973 30.4873 141.793 30.0907C141.613 29.6941 141.355 29.1779 141.018 28.5421L138.722 24.4067C137.219 21.0712 133.716 22.0693 133.914 24.5942C133.91 24.7508 133.999 25.0014 134.18 25.3457L139.18 33.8721Z" fill="#202020"/>
<path d="M124.302 43.7493C123.938 43.1736 123.696 41.6078 123.786 39.7551L124.095 29.4155C124.169 28.2598 123.295 27.3285 122.685 26.8572C122.072 26.3593 120.97 26.2517 120.235 26.2517C119.5 26.2517 118.682 26.4626 117.92 26.8572C117.158 27.2519 116.467 27.9745 115.764 28.8474C113.018 33.4843 113.981 39.1431 113.75 43.7496C113.702 44.395 112.877 45.1903 111.63 45.2666C111.117 45.298 109.79 44.5068 109.802 43.8023C110.033 30.3019 111.238 29.7343 110.845 26.8572C110.802 26.5409 110.1 26.0548 109.802 26.0632C109.287 26.0776 108.559 26.0835 108.417 25.4927C108.274 24.9018 109.051 23.9579 109.606 23.5438C110.161 23.1296 110.855 23.0629 111.396 23.1296C111.937 23.1963 112.387 23.4267 113.018 23.9032C113.943 24.6016 114.159 25.9818 114.226 27.074C114.237 27.2468 114.244 27.4183 114.247 27.5885C114.719 26.9138 115.224 26.3227 115.764 25.8154C116.646 25.0118 117.584 24.4056 118.577 23.9968C119.571 23.588 120.56 23.3534 121.546 23.2931C123.634 23.1653 125.173 23.5931 126.164 24.5764C127.183 25.5313 128.222 26.9148 128.137 28.8474L127.564 39.5701C127.551 39.8859 127.556 40.1093 127.561 40.3326C127.565 40.5078 127.569 40.6831 127.564 40.9028C127.553 41.4026 127.63 42.0952 127.776 42.2419C128.045 42.5112 128.426 42.3954 128.769 42.2915C129.224 42.1534 129.61 42.0362 129.571 42.8714C129.511 43.8883 129.444 44.8135 128.362 45.2342C126.366 45.6455 125.088 44.9919 124.302 43.7493Z" fill="#202020"/>
<path d="M104.892 17.3265C104.892 18.5496 103.656 19.541 102.132 19.541C100.607 19.541 99.3709 18.5496 99.3709 17.3265C99.3709 16.1035 100.607 15.1121 102.132 15.1121C103.656 15.1121 104.892 16.1035 104.892 17.3265Z" fill="#202020"/>
<path d="M102.432 45.2666C101.313 45.3253 100.356 45.0153 99.5628 44.3366C98.7959 43.6288 98.4618 42.3442 98.5607 40.4827L99.3568 24.3581C99.4468 21.8181 103.384 21.4293 103.345 24.1489L102.549 40.2735C102.527 40.9119 102.607 41.3649 102.789 41.6323C102.97 41.8722 103.401 42.7108 104.116 42.4123C105.662 41.7664 105.342 44.3366 104.264 44.8796C103.663 45.1826 103.02 45.2358 102.432 45.2666Z" fill="#202020"/>
<defs>
<linearGradient id="paint0_linear_7113_27172" x1="5.48132" y1="30.2781" x2="49.4067" y2="30.2781" gradientUnits="userSpaceOnUse">
<stop stop-color="#006832"/>
<stop offset="1" stop-color="#85C021"/>
</linearGradient>
</defs>
</svg>
