<svg width="107" height="40" viewBox="0 0 107 40" fill="none" xmlns="http://www.w3.org/2000/svg">
<path fill-rule="evenodd" clip-rule="evenodd" d="M26.9081 15.7093C30.238 15.7093 32.9374 13.0099 32.9374 9.6801C32.9374 6.35025 30.238 3.65088 26.9081 3.65088C23.5783 3.65088 20.8789 6.35025 20.8789 9.6801C20.8789 10.4735 21.0322 11.2312 21.3107 11.925L14.3089 16.3432C13.2032 15.0138 11.5365 14.1674 9.67223 14.1674C6.34306 14.1674 3.64423 16.8663 3.64423 20.1954C3.64423 23.5246 6.34306 26.2235 9.67223 26.2235C11.586 26.2235 13.2915 25.3316 14.3958 23.9408L21.238 28.5828C21.0056 29.224 20.8789 29.9159 20.8789 30.6373C20.8789 33.9672 23.5783 36.6666 26.9081 36.6666C30.238 36.6666 32.9374 33.9672 32.9374 30.6373C32.9374 27.3075 30.238 24.6081 26.9081 24.6081C24.899 24.6081 23.1194 25.5908 22.0238 27.1018L15.2433 22.5018C15.5377 21.7913 15.7002 21.0124 15.7002 20.1954C15.7002 19.3285 15.5172 18.5043 15.1877 17.7594L22.141 13.3718C23.2439 14.794 24.9691 15.7093 26.9081 15.7093ZM26.9081 14.0426C29.3175 14.0426 31.2707 12.0895 31.2707 9.6801C31.2707 7.27073 29.3175 5.31755 26.9081 5.31755C24.4988 5.31755 22.5456 7.27073 22.5456 9.6801C22.5456 12.0895 24.4988 14.0426 26.9081 14.0426ZM9.67223 24.5568C12.0809 24.5568 14.0336 22.6041 14.0336 20.1954C14.0336 17.7867 12.0809 15.8341 9.67223 15.8341C7.26353 15.8341 5.31089 17.7867 5.31089 20.1954C5.31089 22.6041 7.26353 24.5568 9.67223 24.5568ZM31.2707 30.6373C31.2707 33.0467 29.3175 34.9999 26.9081 34.9999C24.4988 34.9999 22.5456 33.0467 22.5456 30.6373C22.5456 28.228 24.4988 26.2748 26.9081 26.2748C29.3175 26.2748 31.2707 28.228 31.2707 30.6373Z" fill="url(#paint0_linear_7193_32711)"/>
<path fill-rule="evenodd" clip-rule="evenodd" d="M47.8358 29.8533C46.9484 29.9166 46.1723 29.8112 45.5075 29.5372C44.8603 29.2441 44.3661 28.9668 44.0248 28.7054C43.9683 29.0361 43.8407 30.1868 43.6108 30.3345C43.381 30.4823 41.6468 30.3728 41.6669 29.5701L42.4448 10.5489C42.4723 10.1362 42.8826 9.90158 43.6756 9.84501L43.9305 9.82682C44.3459 9.79718 44.6423 9.82961 44.8199 9.92409C45.0163 10.0172 45.1215 10.1615 45.1354 10.357L44.8203 18.3086C45.3221 17.362 45.9272 16.667 46.6357 16.2236C47.3618 15.761 48.1308 15.5008 48.9427 15.4429C49.5091 15.4025 50.1008 15.4496 50.7176 15.5841C51.3521 15.6996 51.9489 15.9517 52.508 16.3404C53.0671 16.7291 53.5338 17.2851 53.908 18.0085C54.2998 18.7127 54.5357 19.6245 54.6155 20.7439C54.7347 22.4141 54.5385 23.9193 54.0268 25.2595C53.5139 26.5819 52.727 27.656 51.6663 28.4817C50.6231 29.2883 49.3463 29.7455 47.8358 29.8533ZM47.3438 27.7453C48.3068 27.6766 49.0972 27.4506 49.7151 27.0672C50.3317 26.666 50.7984 26.1595 51.1153 25.5476C51.4511 24.9343 51.6679 24.2491 51.7657 23.4921C51.8812 22.7159 51.9104 21.9281 51.8533 21.1285C51.7861 20.1868 51.5919 19.4595 51.2707 18.9467C50.967 18.4148 50.5621 18.0597 50.056 17.8815C49.5486 17.6855 48.9928 17.6091 48.3886 17.6522C47.9921 17.6805 47.5573 17.8365 47.0841 18.1203C46.6286 18.385 46.1851 18.8184 45.7536 19.4207C45.3221 20.0229 44.9625 20.8344 44.6748 21.855C44.0899 23.7675 44.0248 26.6237 45.5367 27.5528C45.8673 27.7559 46.6452 27.7952 47.3438 27.7453Z" fill="#202020"/>
<path d="M60.6864 30.4305C59.677 30.4835 58.9388 30.2457 58.4719 29.7173C58.0039 29.171 57.7945 28.2723 57.8434 27.0211L58.7721 10.8649C58.9321 8.90529 61.6779 8.96858 61.4847 10.6959L60.547 27.2271C60.5286 27.6026 60.5816 27.8853 60.7061 28.0749C61.0045 28.4324 61.8442 28.4016 62.2349 28.2618C62.7568 28.0749 62.7844 27.7654 62.9649 27.7559C63.3914 27.7336 63.4107 28.6006 63.042 29.2015C62.6734 29.8024 62.1928 30.0215 61.7622 30.1868C61.3498 30.3333 60.9912 30.4146 60.6864 30.4305Z" fill="#202020"/>
<path d="M92.7865 22.5814L88.1326 27.7847C87.0238 29.3226 89.3595 30.7751 90.3291 29.176C91.5728 27.7286 94.1986 24.4418 94.1986 24.4418C94.1986 24.4418 95.4584 27.0561 96.176 28.2957C96.3684 28.6281 96.564 28.9661 96.7613 29.3157C97.9174 31.3652 99.8161 30.656 99.6934 29.3391C99.697 29.1998 99.638 29.0328 99.5163 28.838L96.1699 22.691L100.548 17.5166C100.735 17.3123 100.83 17.1406 100.833 17.0013C100.841 16.6846 100.367 15.6642 99.6638 15.6895C98.961 15.7147 98.543 16.1235 98.3435 16.3961C97.1544 17.7758 94.8104 20.721 94.8104 20.721C94.8104 20.721 94.6487 20.3248 94.5288 20.0604C94.4089 19.7961 94.2367 19.4519 94.0123 19.0281L92.4812 16.2711C91.4792 14.0474 89.1438 14.7128 89.276 16.3961C89.2733 16.5005 89.3324 16.6676 89.4532 16.8971L92.7865 22.5814Z" fill="#202020"/>
<path d="M82.8681 29.1662C82.6254 28.7824 82.4638 27.7385 82.524 26.5034L82.7298 19.6103C82.7797 18.8399 82.1969 18.219 81.7897 17.9048C81.3814 17.5729 80.6469 17.5011 80.1569 17.5011C79.6669 17.5011 79.1211 17.6417 78.6133 17.9048C78.1056 18.1679 77.6448 18.6497 77.176 19.2316C75.3456 22.3228 75.9876 26.0954 75.8333 29.1664C75.8014 29.5967 75.2513 30.1268 74.4202 30.1777C74.0778 30.1987 73.1935 29.6712 73.2015 29.2015C73.3555 20.2013 74.1587 19.8228 73.8968 17.9048C73.8679 17.6939 73.3997 17.3699 73.2015 17.3754C72.8579 17.3851 72.373 17.389 72.2779 16.9951C72.1828 16.6012 72.7007 15.9719 73.0708 15.6958C73.4409 15.4197 73.9035 15.3752 74.264 15.4197C74.6244 15.4642 74.925 15.6178 75.3456 15.9354C75.9622 16.401 76.1061 17.3212 76.1507 18.0493C76.1577 18.1645 76.1625 18.2789 76.1649 18.3923C76.4791 17.9425 76.8162 17.5485 77.176 17.2102C77.7641 16.6745 78.3892 16.2704 79.0516 15.9979C79.7139 15.7253 80.3736 15.5689 81.0308 15.5287C82.4224 15.4435 83.4487 15.7287 84.1096 16.3843C84.7888 17.0209 85.4815 17.9432 85.4245 19.2316L85.043 26.38C85.0341 26.5905 85.0375 26.7395 85.0409 26.8884C85.0436 27.0052 85.0462 27.1221 85.043 27.2685C85.0356 27.6017 85.0864 28.0634 85.1841 28.1613C85.3633 28.3408 85.6177 28.2636 85.846 28.1943C86.1494 28.1022 86.4067 28.0241 86.3805 28.5809C86.3404 29.2588 86.2962 29.8757 85.5748 30.1561C84.2438 30.4303 83.392 29.9946 82.8681 29.1662Z" fill="#202020"/>
<path d="M69.9282 11.551C69.9282 12.3664 69.1042 13.0273 68.0878 13.0273C67.0713 13.0273 66.2473 12.3664 66.2473 11.551C66.2473 10.7357 67.0713 10.0747 68.0878 10.0747C69.1042 10.0747 69.9282 10.7357 69.9282 11.551Z" fill="#202020"/>
<path d="M68.2882 30.1777C67.5418 30.2169 66.9041 30.0102 66.3752 29.5577C65.8639 29.0858 65.6412 28.2294 65.7071 26.9885L66.2379 16.2387C66.2979 14.5454 68.9225 14.2862 68.897 16.0992L68.3662 26.849C68.3511 27.2746 68.4044 27.5766 68.526 27.7549C68.6467 27.9148 68.9341 28.4738 69.4106 28.2748C70.4413 27.8443 70.2278 29.5577 69.5097 29.9197C69.1089 30.1217 68.6801 30.1571 68.2882 30.1777Z" fill="#202020"/>
<defs>
<linearGradient id="paint0_linear_7193_32711" x1="3.65424" y1="20.1854" x2="32.9379" y2="20.1854" gradientUnits="userSpaceOnUse">
<stop stop-color="#006832"/>
<stop offset="1" stop-color="#85C021"/>
</linearGradient>
</defs>
</svg>
