<svg width="20" height="20" viewBox="0 0 20 20" fill="none" xmlns="http://www.w3.org/2000/svg">
<path d="M8.33341 9.9987C10.1744 9.9987 11.6667 8.50631 11.6667 6.66536C11.6667 4.82442 10.1744 3.33203 8.33341 3.33203C6.49247 3.33203 5.00008 4.82442 5.00008 6.66536C5.00008 8.50631 6.49247 9.9987 8.33341 9.9987Z" fill="#828282"/>
<path d="M8.89175 10.8487C8.70841 10.8404 8.52508 10.832 8.33341 10.832C6.31675 10.832 4.43341 11.3904 2.82508 12.3487C2.09175 12.782 1.66675 13.5987 1.66675 14.457V16.6654H9.38341C8.72508 15.7237 8.33341 14.5737 8.33341 13.332C8.33341 12.4404 8.54175 11.607 8.89175 10.8487Z" fill="#828282"/>
<path d="M17.2917 13.332C17.2917 13.1487 17.2667 12.982 17.2417 12.807L18.1917 11.9654L17.3584 10.5237L16.1501 10.932C15.8834 10.707 15.5834 10.532 15.2501 10.407L15.0001 9.16536H13.3334L13.0834 10.407C12.7501 10.532 12.4501 10.707 12.1834 10.932L10.9751 10.5237L10.1417 11.9654L11.0917 12.807C11.0667 12.982 11.0417 13.1487 11.0417 13.332C11.0417 13.5154 11.0667 13.682 11.0917 13.857L10.1417 14.6987L10.9751 16.1404L12.1834 15.732C12.4501 15.957 12.7501 16.132 13.0834 16.257L13.3334 17.4987H15.0001L15.2501 16.257C15.5834 16.132 15.8834 15.957 16.1501 15.732L17.3584 16.1404L18.1917 14.6987L17.2417 13.857C17.2667 13.682 17.2917 13.5154 17.2917 13.332ZM14.1667 14.9987C13.2501 14.9987 12.5001 14.2487 12.5001 13.332C12.5001 12.4154 13.2501 11.6654 14.1667 11.6654C15.0834 11.6654 15.8334 12.4154 15.8334 13.332C15.8334 14.2487 15.0834 14.9987 14.1667 14.9987Z" fill="#828282"/>
</svg>
