<svg viewBox="0 0 55 54" fill="none" xmlns="http://www.w3.org/2000/svg">
<path d="M22.8334 29.6663C22.8334 31.5063 21.34 32.9997 19.5 32.9997C17.66 32.9997 16.1667 31.5063 16.1667 29.6663C16.1667 27.8263 17.66 26.333 19.5 26.333C21.34 26.333 22.8334 27.8263 22.8334 29.6663ZM35.5 26.333C33.66 26.333 32.1667 27.8263 32.1667 29.6663C32.1667 31.5063 33.66 32.9997 35.5 32.9997C37.34 32.9997 38.8334 31.5063 38.8334 29.6663C38.8334 27.8263 37.34 26.333 35.5 26.333ZM54.1667 26.9997C54.1667 41.7197 42.22 53.6663 27.5 53.6663C12.78 53.6663 0.833374 41.7197 0.833374 26.9997C0.833374 12.2797 12.78 0.333008 27.5 0.333008C42.22 0.333008 54.1667 12.2797 54.1667 26.9997ZM23.9267 5.98634C27.66 12.173 34.4334 16.333 42.1667 16.333C43.3934 16.333 44.5934 16.1997 45.74 16.013C42.0067 9.82634 35.2334 5.66634 27.5 5.66634C26.2734 5.66634 25.0734 5.79967 23.9267 5.98634ZM7.28671 20.253C11.8467 17.6663 15.3667 13.453 17.0467 8.41301C12.4867 10.9997 8.96671 15.213 7.28671 20.253ZM48.8334 26.9997C48.8334 24.9197 48.5134 22.9197 47.9534 21.0263C46.0867 21.4263 44.1667 21.6663 42.1667 21.6663C33.82 21.6663 26.38 17.8263 21.4734 11.8263C18.6734 18.653 13.1 24.013 6.16671 26.6263C6.19337 26.733 6.16671 26.8663 6.16671 26.9997C6.16671 38.7597 15.74 48.333 27.5 48.333C39.26 48.333 48.8334 38.7597 48.8334 26.9997Z" fill="#828282"/>
</svg>
