<svg width="12" height="12" viewBox="0 0 12 12" fill="none" xmlns="http://www.w3.org/2000/svg">
<path d="M5.99984 0.166016C5.5396 0.166016 5.1665 0.539112 5.1665 0.999349V4.74935C5.1665 4.97947 4.97996 5.16602 4.74984 5.16602H0.999837C0.5396 5.16602 0.166504 5.53911 0.166504 5.99935C0.166504 6.45959 0.5396 6.83268 0.999838 6.83268H4.74984C4.97996 6.83268 5.1665 7.01923 5.1665 7.24935V10.9993C5.1665 11.4596 5.5396 11.8327 5.99984 11.8327C6.46007 11.8327 6.83317 11.4596 6.83317 10.9993V7.24935C6.83317 7.01923 7.01972 6.83268 7.24984 6.83268H10.9998C11.4601 6.83268 11.8332 6.45959 11.8332 5.99935C11.8332 5.53911 11.4601 5.16602 10.9998 5.16602H7.24984C7.01972 5.16602 6.83317 4.97947 6.83317 4.74935V0.999349C6.83317 0.539112 6.46007 0.166016 5.99984 0.166016Z" fill="#5ED451"/>
</svg>
