<svg width="24" height="24" viewBox="0 0 24 24" fill="none" xmlns="http://www.w3.org/2000/svg">
<path d="M19.8991 8.13626C19.9112 8.31126 19.9112 8.48626 19.9112 8.66287C19.9112 14.0443 15.8144 20.2508 8.32331 20.2508V20.2476C6.11041 20.2508 3.94347 19.6169 2.08057 18.4217C2.40234 18.4605 2.72573 18.4798 3.04992 18.4806C4.88379 18.4822 6.66524 17.8669 8.10799 16.7338C6.36524 16.7008 4.83702 15.5645 4.30315 13.9056C4.91363 14.0234 5.54266 13.9992 6.14186 13.8355C4.24186 13.4516 2.87492 11.7822 2.87492 9.84352C2.87492 9.82578 2.87492 9.80884 2.87492 9.79191C3.44105 10.1072 4.07492 10.2822 4.72331 10.3016C2.93379 9.10562 2.38218 6.72497 3.46282 4.86368C5.53057 7.40804 8.58137 8.95481 11.8564 9.11852C11.5281 7.704 11.9765 6.22175 13.0346 5.22739C14.6749 3.68546 17.2548 3.76449 18.7967 5.404C19.7088 5.22416 20.583 4.88949 21.383 4.41529C21.079 5.35804 20.4427 6.15884 19.5927 6.66771C20.3999 6.57255 21.1886 6.35642 21.9314 6.02658C21.3846 6.84594 20.6959 7.55965 19.8991 8.13626Z" fill="#1D9BF0"/>
</svg>
