<svg width="20" height="17" viewBox="0 0 20 17" fill="none" xmlns="http://www.w3.org/2000/svg">
<path d="M17.8991 4.13626C17.9112 4.31126 17.9112 4.48626 17.9112 4.66287C17.9112 10.0443 13.8144 16.2508 6.32331 16.2508V16.2476C4.11041 16.2508 1.94347 15.6169 0.0805664 14.4217C0.402341 14.4605 0.725728 14.4798 1.04992 14.4806C2.88379 14.4822 4.66524 13.8669 6.10799 12.7338C4.36524 12.7008 2.83702 11.5645 2.30315 9.90562C2.91363 10.0234 3.54266 9.99916 4.14186 9.83545C2.24186 9.45158 0.874921 7.78223 0.874921 5.84352C0.874921 5.82578 0.874921 5.80884 0.874921 5.79191C1.44105 6.10723 2.07492 6.28223 2.72331 6.30158C0.933792 5.10562 0.382179 2.72497 1.46282 0.863681C3.53057 3.40804 6.58137 4.95481 9.85637 5.11852C9.52815 3.704 9.97653 2.22175 11.0346 1.22739C12.6749 -0.314545 15.2548 -0.235512 16.7967 1.404C17.7088 1.22416 18.583 0.889488 19.383 0.415294C19.079 1.35804 18.4427 2.15884 17.5927 2.66771C18.3999 2.57255 19.1886 2.35642 19.9314 2.02658C19.3846 2.84594 18.6959 3.55965 17.8991 4.13626Z" fill="#1D9BF0"/>
</svg>
