<svg width="17" height="18" viewBox="0 0 14 18" fill="none" xmlns="http://www.w3.org/2000/svg">
<path d="M5.06659 10.4077L6.99992 8.94102L8.92492 10.4077L8.19159 8.03268L10.1249 6.49935H7.75825L6.99992 4.15768L6.24159 6.49935H3.87492L5.79992 8.03268L5.06659 10.4077ZM13.6666 7.33268C13.6666 3.64935 10.6833 0.666016 6.99992 0.666016C3.31659 0.666016 0.333252 3.64935 0.333252 7.33268C0.333252 9.02435 0.966585 10.5577 1.99992 11.7327V16.7786C1.99992 17.4611 2.66862 17.9431 3.31615 17.7273L6.99992 16.4993L10.6837 17.7273C11.3312 17.9431 11.9999 17.4611 11.9999 16.7786V11.7327C13.0333 10.5577 13.6666 9.02435 13.6666 7.33268ZM6.99992 2.33268C9.75825 2.33268 11.9999 4.57435 11.9999 7.33268C11.9999 10.091 9.75825 12.3327 6.99992 12.3327C4.24159 12.3327 1.99992 10.091 1.99992 7.33268C1.99992 4.57435 4.24159 2.33268 6.99992 2.33268ZM6.99992 14.8327L3.66659 15.6827V13.0993C4.64992 13.666 5.78325 13.9993 6.99992 13.9993C8.21659 13.9993 9.34992 13.666 10.3333 13.0993V15.6827L6.99992 14.8327Z"/>
</svg>
