<svg width="18" height="18" viewBox="0 0 18 18" fill="none" xmlns="http://www.w3.org/2000/svg">
<path d="M2 18C1.45 18 0.979 17.8043 0.587 17.413C0.195667 17.021 0 16.55 0 16V2C0 1.45 0.195667 0.979 0.587 0.587C0.979 0.195667 1.45 0 2 0H10C10.2833 0 10.521 0.0956666 10.713 0.287C10.9043 0.479 11 0.716667 11 1C11 1.28333 10.9043 1.52067 10.713 1.712C10.521 1.904 10.2833 2 10 2H2V16H16V8C16 7.71667 16.096 7.479 16.288 7.287C16.4793 7.09567 16.7167 7 17 7C17.2833 7 17.5207 7.09567 17.712 7.287C17.904 7.479 18 7.71667 18 8V16C18 16.55 17.8043 17.021 17.413 17.413C17.021 17.8043 16.55 18 16 18H2ZM15 6C14.7167 6 14.4793 5.904 14.288 5.712C14.096 5.52067 14 5.28333 14 5V4H13C12.7167 4 12.4793 3.90433 12.288 3.713C12.096 3.521 12 3.28333 12 3C12 2.71667 12.096 2.479 12.288 2.287C12.4793 2.09567 12.7167 2 13 2H14V1C14 0.716667 14.096 0.479 14.288 0.287C14.4793 0.0956666 14.7167 0 15 0C15.2833 0 15.5207 0.0956666 15.712 0.287C15.904 0.479 16 0.716667 16 1V2H17C17.2833 2 17.5207 2.09567 17.712 2.287C17.904 2.479 18 2.71667 18 3C18 3.28333 17.904 3.521 17.712 3.713C17.5207 3.90433 17.2833 4 17 4H16V5C16 5.28333 15.904 5.52067 15.712 5.712C15.5207 5.904 15.2833 6 15 6ZM4 14H14C14.2 14 14.35 13.9083 14.45 13.725C14.55 13.5417 14.5333 13.3667 14.4 13.2L11.65 9.525C11.55 9.39167 11.4167 9.325 11.25 9.325C11.0833 9.325 10.95 9.39167 10.85 9.525L8.25 13L6.4 10.525C6.3 10.3917 6.16667 10.325 6 10.325C5.83333 10.325 5.7 10.3917 5.6 10.525L3.6 13.2C3.46667 13.3667 3.45 13.5417 3.55 13.725C3.65 13.9083 3.8 14 4 14ZM2 8V16V2V5C2 5.28333 2 5.52067 2 5.712C2 5.904 2 6 2 6V7C2 7.28333 2 7.52067 2 7.712C2 7.904 2 8 2 8Z" fill="#5ED451"/>
</svg>
