<svg width="17" height="19" viewBox="0 0 17 19" fill="none" xmlns="http://www.w3.org/2000/svg">
<path fill-rule="evenodd" clip-rule="evenodd" d="M11.5581 18.9994L9.24532 16.6666C8.92489 16.3434 8.92509 15.8223 9.24576 15.4993C9.56958 15.1732 10.097 15.1729 10.4212 15.4986L11.5581 16.6411L15.2454 12.925C15.5693 12.5986 16.097 12.5986 16.421 12.9248C16.7414 13.2475 16.7417 13.7682 16.4216 14.0913L11.5581 18.9994Z"/>
<path d="M6.99992 8.94102L6.09992 9.62435C5.77492 9.86602 5.33325 9.55768 5.44992 9.16602L5.79992 8.03268L4.80825 7.24102C4.49992 6.99935 4.67492 6.49935 5.06659 6.49935H6.24159L6.60825 5.38268C6.73325 4.99935 7.27492 4.99935 7.39992 5.38268L7.75825 6.49935H8.92492C9.32492 6.49935 9.49992 6.99935 9.19159 7.23268L8.19159 8.02435L8.54159 9.15768C8.65825 9.54935 8.21659 9.85768 7.89158 9.61602L6.99992 8.94102Z"/>
<path fill-rule="evenodd" clip-rule="evenodd" d="M3.09992 17.7994C2.55825 17.9743 1.99992 17.5744 1.99992 17.0077V11.7327C0.966585 10.5577 0.333252 9.02435 0.333252 7.33268C0.333252 3.64935 3.31659 0.666016 6.99992 0.666016C10.6833 0.666016 13.6666 3.64935 13.6666 7.33268C13.6666 9.02435 13.0333 10.5577 11.9999 11.7327V13.8296L11.5558 14.2772C10.5762 13.3423 9.02277 13.3584 8.06306 14.325C7.43999 14.9525 7.21872 15.8285 7.39935 16.6325L6.99992 16.4994L3.09992 17.7994ZM11.9999 7.33268C11.9999 4.57435 9.75825 2.33268 6.99992 2.33268C4.24159 2.33268 1.99992 4.57435 1.99992 7.33268C1.99992 10.091 4.24159 12.3327 6.99992 12.3327C9.75825 12.3327 11.9999 10.091 11.9999 7.33268Z"/>
</svg>
