<svg width="16" height="13" viewBox="0 0 16 13" xmlns="http://www.w3.org/2000/svg">
<path d="M14.7708 7.5L13 5.72917L13.6042 5.125C13.7569 4.97222 13.9514 4.89583 14.1875 4.89583C14.4236 4.89583 14.6181 4.97222 14.7708 5.125L15.375 5.72917C15.5278 5.88194 15.6042 6.07639 15.6042 6.3125C15.6042 6.54861 15.5278 6.74306 15.375 6.89583L14.7708 7.5ZM8 12.5V10.7292L12.4167 6.3125L14.1875 8.08333L9.77083 12.5H8ZM1.33333 8.33333C0.873097 8.33333 0.5 7.96024 0.5 7.5V7.5C0.5 7.03976 0.873096 6.66667 1.33333 6.66667H5.5C5.96024 6.66667 6.33333 7.03976 6.33333 7.5V7.5C6.33333 7.96024 5.96024 8.33333 5.5 8.33333H1.33333ZM1.33333 5C0.873097 5 0.5 4.6269 0.5 4.16667V4.16667C0.5 3.70643 0.873096 3.33333 1.33333 3.33333H8.83333C9.29357 3.33333 9.66667 3.70643 9.66667 4.16667V4.16667C9.66667 4.6269 9.29357 5 8.83333 5H1.33333ZM1.33333 1.66667C0.873097 1.66667 0.5 1.29357 0.5 0.833333V0.833333C0.5 0.373096 0.873096 0 1.33333 0H8.83333C9.29357 0 9.66667 0.373096 9.66667 0.833333V0.833333C9.66667 1.29357 9.29357 1.66667 8.83333 1.66667H1.33333Z"/>
</svg>
